Coordinates
version=1
nRows=9
nColumns=24
inDegrees=yes

Units are S.I. units (second, meters, Newtons, ...)
Angles are in degrees.

endheader
time	pelvis_tilt	pelvis_list	pelvis_rotation	pelvis_tx	pelvis_ty	pelvis_tz	hip_flexion_r	hip_adduction_r	hip_rotation_r	knee_angle_r	ankle_angle_r	subtalar_angle_r	mtp_angle_r	hip_flexion_l	hip_adduction_l	hip_rotation_l	knee_angle_l	ankle_angle_l	subtalar_angle_l	mtp_angle_l	lumbar_extension	lumbar_bending	lumbar_rotation
      1.37500000	      1.05728600	      2.40809559	      0.35221528	      0.23696965	      1.06862841	      0.32485840	     13.84872739	     -3.83919396	     -3.11006191	    -66.95666326	     -5.74621569	    -13.82655706	      4.95746874	      7.31499570	      6.80583887	     -3.21212671	    -10.65087122	      3.06852933	     -0.87369558	     -1.71300507	      2.64737126	     -0.12260444	     -0.79533284
      1.37916667	      1.07333929	      2.37282388	      0.35229859	      0.24199592	      1.06922618	      0.32460313	     14.43971162	     -3.77490191	     -2.92853321	    -66.92808533	     -5.16767065	    -14.26250222	      4.87398960	      6.93233309	      6.79020870	     -3.12999503	    -10.53386175	      3.23108564	     -0.76673290	     -1.72471997	      2.57977689	      0.00114078	     -0.86463176
      1.38333333	      1.07987318	      2.30908275	      0.38395806	      0.24700861	      1.06981522	      0.32448367	     15.02049206	     -3.65888675	     -2.78952054	    -66.84025294	     -4.47329693	    -14.74678274	      4.78198232	      6.57057108	      6.72484061	     -3.10143302	    -10.42881730	      3.43423170	     -0.68308553	     -1.73849401	      2.53354184	      0.07736294	     -0.92887797
      1.38750000	      1.08047163	      2.23397259	      0.45131113	      0.25201138	      1.07039716	      0.32439545	     15.58175247	     -3.52786762	     -2.67710570	    -66.67923612	     -3.79935803	    -15.19019551	      4.63632031	      6.22704219	      6.64167212	     -3.10986809	    -10.36253328	      3.65889201	     -0.55676688	     -1.76378086	      2.50183324	      0.10596723	     -1.00122345
      1.39166667	      1.08434466	      2.19427769	      0.44398944	      0.25700436	      1.07094486	      0.32422675	     16.15087669	     -3.43859756	     -2.49130079	    -66.48511796	     -3.28251787	    -15.49312411	      4.55113217	      5.84686666	      6.61584098	     -3.01905831	    -10.21272964	      3.80921780	     -0.46192805	     -1.77846404	      2.45564445	      0.22985725	     -1.07078015
      1.39583333	      1.08749945	      2.12354388	      0.47728363	      0.26201938	      1.07149736	      0.32411370	     16.68830425	     -3.30896127	     -2.34940458	    -66.22026991	     -2.64867343	    -15.81712438	      4.45539569	      5.47617942	      6.54672569	     -2.98127203	    -10.09042959	      3.99769625	     -0.39771502	     -1.79630972	      2.41474464	      0.30403965	     -1.13592801
      1.40000000	      1.08951571	      2.06841268	      0.50572264	      0.26697789	      1.07201696	      0.32402169	     17.22194538	     -3.19381494	     -2.20366765	    -65.91118479	     -2.08012487	    -16.05904953	      4.35878535	      5.10554268	      6.49512081	     -2.92356323	     -9.95547539	      4.16787115	     -0.32718283	     -1.81563023	      2.37013368	      0.37113322	     -1.20194595
      1.40416667	      1.08792834	      2.00962826	      0.54236262	      0.27196535	      1.07252021	      0.32394952	     17.73837111	     -3.07158796	     -2.06396435	    -65.54410387	     -1.50751773	    -16.25376573	      4.25362413	      4.73396068	      6.43891150	     -2.86670428	     -9.81659168	      4.33943716	     -0.26624685	     -1.83842196	      2.33338284	      0.43138539	     -1.27196330
      1.40833333	      1.08934337	      1.95968733	      0.56270841	      0.27691179	      1.07300011	      0.32389864	     18.24503757	     -2.95323767	     -1.90868208	    -65.12693302	     -0.99540971	    -16.39410767	      4.16239585	      4.35325655	      6.39301468	     -2.79259790	     -9.65042284	      4.48913837	     -0.21779836	     -1.85926921	      2.29636259	      0.49971158	     -1.34025556
